<svg xmlns="http://www.w3.org/2000/svg" width="47.694" height="47.694" viewBox="0 0 47.694 47.694"><path d="M23.847,4.3c6.367,0,7.122.024,9.636.139a13.2,13.2,0,0,1,4.428.821,7.389,7.389,0,0,1,2.742,1.784,7.388,7.388,0,0,1,1.784,2.742,13.2,13.2,0,0,1,.821,4.428c.115,2.515.139,3.269.139,9.636s-.024,7.122-.139,9.636a13.2,13.2,0,0,1-.821,4.428,7.9,7.9,0,0,1-4.526,4.526,13.2,13.2,0,0,1-4.428.821c-2.514.115-3.268.139-9.636.139s-7.122-.024-9.636-.139a13.2,13.2,0,0,1-4.428-.821,7.388,7.388,0,0,1-2.742-1.784,7.388,7.388,0,0,1-1.784-2.742,13.2,13.2,0,0,1-.821-4.428c-.115-2.515-.139-3.269-.139-9.636s.024-7.122.139-9.636a13.2,13.2,0,0,1,.821-4.428A7.388,7.388,0,0,1,7.041,7.041,7.389,7.389,0,0,1,9.783,5.257a13.2,13.2,0,0,1,4.428-.821c2.515-.115,3.269-.139,9.636-.139m0-4.3c-6.477,0-7.288.027-9.832.144A17.5,17.5,0,0,0,8.226,1.252,11.689,11.689,0,0,0,4,4,11.689,11.689,0,0,0,1.252,8.226,17.5,17.5,0,0,0,.143,14.015C.027,16.558,0,17.371,0,23.847s.027,7.289.143,9.832a17.5,17.5,0,0,0,1.108,5.789A11.69,11.69,0,0,0,4,43.692a11.689,11.689,0,0,0,4.224,2.751,17.5,17.5,0,0,0,5.789,1.108c2.544.116,3.356.143,9.832.143s7.289-.027,9.832-.143a17.5,17.5,0,0,0,5.789-1.108,12.194,12.194,0,0,0,6.974-6.974,17.5,17.5,0,0,0,1.108-5.789c.116-2.543.144-3.356.144-9.832s-.027-7.289-.144-9.832a17.5,17.5,0,0,0-1.108-5.789A11.689,11.689,0,0,0,43.691,4a11.689,11.689,0,0,0-4.224-2.751A17.5,17.5,0,0,0,33.679.144C31.136.027,30.323,0,23.847,0Zm0,11.6A12.246,12.246,0,1,0,36.093,23.847,12.246,12.246,0,0,0,23.847,11.6Zm0,20.195A7.949,7.949,0,1,1,31.8,23.847,7.949,7.949,0,0,1,23.847,31.8ZM39.438,11.117a2.862,2.862,0,1,1-2.862-2.862A2.862,2.862,0,0,1,39.438,11.117Z" transform="translate(0)" fill="#9b98a3"/></svg>