<svg xmlns="http://www.w3.org/2000/svg" width="45.17" height="43.162" viewBox="0 0 45.17 43.162"><g transform="translate(0 -9.558)"><path d="M45.17,36.021v16.7H35.488V37.139c0-3.914-1.4-6.585-4.9-6.585A5.3,5.3,0,0,0,25.616,34.1a6.625,6.625,0,0,0-.321,2.36V52.72H15.611s.13-26.389,0-29.123h9.684v4.128c-.02.031-.045.064-.064.094h.064v-.094a9.615,9.615,0,0,1,8.727-4.812C40.393,22.913,45.17,27.075,45.17,36.021ZM5.48,9.558C2.167,9.558,0,11.731,0,14.589a5.016,5.016,0,0,0,5.352,5.035h.065c3.377,0,5.478-2.239,5.478-5.035A5.03,5.03,0,0,0,5.48,9.558ZM.575,52.72h9.681V23.6H.575Z" fill="#9b98a3"/></g></svg>